TITLE ""
FILE "LR_black_phrase_A06.mp3" MP3
  TRACK 01 AUDIO
    TITLE "LR_black_phrase_A06_001"
    INDEX 01 00:00:00
  TRACK 02 AUDIO
    TITLE "LR_black_phrase_A06_002"
    INDEX 01 00:00:14
  TRACK 03 AUDIO
    TITLE "LR_black_phrase_A06_003"
    INDEX 01 00:01:37
  TRACK 04 AUDIO
    TITLE "LR_black_phrase_A06_004"
    INDEX 01 00:02:01
  TRACK 05 AUDIO
    TITLE "LR_black_phrase_A06_005"
    INDEX 01 00:04:24
  TRACK 06 AUDIO
    TITLE "LR_black_phrase_A06_006"
    INDEX 01 00:05:21
  TRACK 07 AUDIO
    TITLE "LR_black_phrase_A06_007"
    INDEX 01 00:07:03
  TRACK 08 AUDIO
    TITLE "LR_black_phrase_A06_008"
    INDEX 01 00:07:42
  TRACK 09 AUDIO
    TITLE "LR_black_phrase_A06_009"
    INDEX 01 00:09:29
  TRACK 10 AUDIO
    TITLE "LR_black_phrase_A06_010"
    INDEX 01 00:09:58
  TRACK 11 AUDIO
    TITLE "LR_black_phrase_A06_011"
    INDEX 01 00:11:43
  TRACK 12 AUDIO
    TITLE "LR_black_phrase_A06_012"
    INDEX 01 00:12:47
  TRACK 13 AUDIO
    TITLE "LR_black_phrase_A06_013"
    INDEX 01 00:13:70
  TRACK 14 AUDIO
    TITLE "LR_black_phrase_A06_014"
    INDEX 01 00:14:36
  TRACK 15 AUDIO
    TITLE "LR_black_phrase_A06_015"
    INDEX 01 00:18:18
  TRACK 16 AUDIO
    TITLE "LR_black_phrase_A06_016"
    INDEX 01 00:19:17
  TRACK 17 AUDIO
    TITLE "LR_black_phrase_A06_017"
    INDEX 01 00:22:06
  TRACK 18 AUDIO
    TITLE "LR_black_phrase_A06_018"
    INDEX 01 00:22:45
  TRACK 19 AUDIO
    TITLE "LR_black_phrase_A06_019"
    INDEX 01 00:25:04
  TRACK 20 AUDIO
    TITLE "LR_black_phrase_A06_020"
    INDEX 01 00:25:32
  TRACK 21 AUDIO
    TITLE "LR_black_phrase_A06_021"
    INDEX 01 00:27:64
  TRACK 22 AUDIO
    TITLE "LR_black_phrase_A06_022"
    INDEX 01 00:28:69
  TRACK 23 AUDIO
    TITLE "LR_black_phrase_A06_023"
    INDEX 01 00:30:06
  TRACK 24 AUDIO
    TITLE "LR_black_phrase_A06_024"
    INDEX 01 00:30:45
  TRACK 25 AUDIO
    TITLE "LR_black_phrase_A06_025"
    INDEX 01 00:33:06
  TRACK 26 AUDIO
    TITLE "LR_black_phrase_A06_026"
    INDEX 01 00:34:01
  TRACK 27 AUDIO
    TITLE "LR_black_phrase_A06_027"
    INDEX 01 00:36:20
  TRACK 28 AUDIO
    TITLE "LR_black_phrase_A06_028"
    INDEX 01 00:36:57
  TRACK 29 AUDIO
    TITLE "LR_black_phrase_A06_029"
    INDEX 01 00:39:20
  TRACK 30 AUDIO
    TITLE "LR_black_phrase_A06_030"
    INDEX 01 00:39:51
  TRACK 31 AUDIO
    TITLE "LR_black_phrase_A06_031"
    INDEX 01 00:42:13
  TRACK 32 AUDIO
    TITLE "LR_black_phrase_A06_032"
    INDEX 01 00:43:12
  TRACK 33 AUDIO
    TITLE "LR_black_phrase_A06_033"
    INDEX 01 00:44:25
  TRACK 34 AUDIO
    TITLE "LR_black_phrase_A06_034"
    INDEX 01 00:44:60
  TRACK 35 AUDIO
    TITLE "LR_black_phrase_A06_035"
    INDEX 01 00:47:08
  TRACK 36 AUDIO
    TITLE "LR_black_phrase_A06_036"
    INDEX 01 00:48:03
  TRACK 37 AUDIO
    TITLE "LR_black_phrase_A06_037"
    INDEX 01 00:50:04
  TRACK 38 AUDIO
    TITLE "LR_black_phrase_A06_038"
    INDEX 01 00:50:40
  TRACK 39 AUDIO
    TITLE "LR_black_phrase_A06_039"
    INDEX 01 00:52:54
  TRACK 40 AUDIO
    TITLE "LR_black_phrase_A06_040"
    INDEX 01 00:52:74
  TRACK 41 AUDIO
    TITLE "LR_black_phrase_A06_041"
    INDEX 01 00:55:15
  TRACK 42 AUDIO
    TITLE "LR_black_phrase_A06_042"
    INDEX 01 00:56:11
  TRACK 43 AUDIO
    TITLE "LR_black_phrase_A06_043"
    INDEX 01 00:57:16
  TRACK 44 AUDIO
    TITLE "LR_black_phrase_A06_044"
    INDEX 01 00:57:51
  TRACK 45 AUDIO
    TITLE "LR_black_phrase_A06_045"
    INDEX 01 01:00:03
  TRACK 46 AUDIO
    TITLE "LR_black_phrase_A06_046"
    INDEX 01 01:00:75
  TRACK 47 AUDIO
    TITLE "LR_black_phrase_A06_047"
    INDEX 01 01:03:07
  TRACK 48 AUDIO
    TITLE "LR_black_phrase_A06_048"
    INDEX 01 01:03:42
  TRACK 49 AUDIO
    TITLE "LR_black_phrase_A06_049"
    INDEX 01 01:06:05
  TRACK 50 AUDIO
    TITLE "LR_black_phrase_A06_050"
    INDEX 01 01:06:25
  TRACK 51 AUDIO
    TITLE "LR_black_phrase_A06_051"
    INDEX 01 01:08:65
  TRACK 52 AUDIO
    TITLE "LR_black_phrase_A06_052"
    INDEX 01 01:09:60
  TRACK 53 AUDIO
    TITLE "LR_black_phrase_A06_053"
    INDEX 01 01:10:66
  TRACK 54 AUDIO
    TITLE "LR_black_phrase_A06_054"
    INDEX 01 01:11:26
  TRACK 55 AUDIO
    TITLE "LR_black_phrase_A06_055"
    INDEX 01 01:13:66
  TRACK 56 AUDIO
    TITLE "LR_black_phrase_A06_056"
    INDEX 01 01:14:67
  TRACK 57 AUDIO
    TITLE "LR_black_phrase_A06_057"
    INDEX 01 01:17:64
  TRACK 58 AUDIO
    TITLE "LR_black_phrase_A06_058"
    INDEX 01 01:18:22
  TRACK 59 AUDIO
    TITLE "LR_black_phrase_A06_059"
    INDEX 01 01:21:15
  TRACK 60 AUDIO
    TITLE "LR_black_phrase_A06_060"
    INDEX 01 01:21:34
  TRACK 61 AUDIO
    TITLE "LR_black_phrase_A06_061"
    INDEX 01 01:24:27
  TRACK 62 AUDIO
    TITLE "LR_black_phrase_A06_062"
    INDEX 01 01:25:30
  TRACK 63 AUDIO
    TITLE "LR_black_phrase_A06_063"
    INDEX 01 01:26:47
  TRACK 64 AUDIO
    TITLE "LR_black_phrase_A06_064"
    INDEX 01 01:27:11
  TRACK 65 AUDIO
    TITLE "LR_black_phrase_A06_065"
    INDEX 01 01:30:12
  TRACK 66 AUDIO
    TITLE "LR_black_phrase_A06_066"
    INDEX 01 01:31:11
  TRACK 67 AUDIO
    TITLE "LR_black_phrase_A06_067"
    INDEX 01 01:34:09
  TRACK 68 AUDIO
    TITLE "LR_black_phrase_A06_068"
    INDEX 01 01:34:49
  TRACK 69 AUDIO
    TITLE "LR_black_phrase_A06_069"
    INDEX 01 01:37:35
  TRACK 70 AUDIO
    TITLE "LR_black_phrase_A06_070"
    INDEX 01 01:37:65
  TRACK 71 AUDIO
    TITLE "LR_black_phrase_A06_071"
    INDEX 01 01:40:49
  TRACK 72 AUDIO
    TITLE "LR_black_phrase_A06_072"
    INDEX 01 01:41:55
  TRACK 73 AUDIO
    TITLE "LR_black_phrase_A06_073"
    INDEX 01 01:42:64
  TRACK 74 AUDIO
    TITLE "LR_black_phrase_A06_074"
    INDEX 01 01:43:30
  TRACK 75 AUDIO
    TITLE "LR_black_phrase_A06_075"
    INDEX 01 01:45:48
  TRACK 76 AUDIO
    TITLE "LR_black_phrase_A06_076"
    INDEX 01 01:46:46
  TRACK 77 AUDIO
    TITLE "LR_black_phrase_A06_077"
    INDEX 01 01:48:66
  TRACK 78 AUDIO
    TITLE "LR_black_phrase_A06_078"
    INDEX 01 01:49:31
  TRACK 79 AUDIO
    TITLE "LR_black_phrase_A06_079"
    INDEX 01 01:51:57
  TRACK 80 AUDIO
    TITLE "LR_black_phrase_A06_080"
    INDEX 01 01:52:13
  TRACK 81 AUDIO
    TITLE "LR_black_phrase_A06_081"
    INDEX 01 01:54:40
  TRACK 82 AUDIO
    TITLE "LR_black_phrase_A06_082"
    INDEX 01 01:55:45
  TRACK 83 AUDIO
    TITLE "LR_black_phrase_A06_083"
    INDEX 01 01:56:70
  TRACK 84 AUDIO
    TITLE "LR_black_phrase_A06_084"
    INDEX 01 01:57:30
  TRACK 85 AUDIO
    TITLE "LR_black_phrase_A06_085"
    INDEX 01 01:58:49
  TRACK 86 AUDIO
    TITLE "LR_black_phrase_A06_086"
    INDEX 01 01:59:47
  TRACK 87 AUDIO
    TITLE "LR_black_phrase_A06_087"
    INDEX 01 02:02:21
  TRACK 88 AUDIO
    TITLE "LR_black_phrase_A06_088"
    INDEX 01 02:02:61
  TRACK 89 AUDIO
    TITLE "LR_black_phrase_A06_089"
    INDEX 01 02:04:75
  TRACK 90 AUDIO
    TITLE "LR_black_phrase_A06_090"
    INDEX 01 02:05:30
  TRACK 91 AUDIO
    TITLE "LR_black_phrase_A06_091"
    INDEX 01 02:07:44
  TRACK 92 AUDIO
    TITLE "LR_black_phrase_A06_092"
    INDEX 01 02:08:46
  TRACK 93 AUDIO
    TITLE "LR_black_phrase_A06_093"
    INDEX 01 02:09:65
  TRACK 94 AUDIO
    TITLE "LR_black_phrase_A06_094"
    INDEX 01 02:10:27
  TRACK 95 AUDIO
    TITLE "LR_black_phrase_A06_095"
    INDEX 01 02:11:64
  TRACK 96 AUDIO
    TITLE "LR_black_phrase_A06_096"
    INDEX 01 02:12:63
  TRACK 97 AUDIO
    TITLE "LR_black_phrase_A06_097"
    INDEX 01 02:15:04
  TRACK 98 AUDIO
    TITLE "LR_black_phrase_A06_098"
    INDEX 01 02:15:38
  TRACK 99 AUDIO
    TITLE "LR_black_phrase_A06_099"
    INDEX 01 02:17:66
  TRACK 100 AUDIO
    TITLE "LR_black_phrase_A06_100"
    INDEX 01 02:18:20
  TRACK 101 AUDIO
    TITLE "LR_black_phrase_A06_101"
    INDEX 01 02:20:47
  TRACK 102 AUDIO
    TITLE "LR_black_phrase_A06_102"
    INDEX 01 02:21:46
  TRACK 103 AUDIO
    TITLE "LR_black_phrase_A06_103"
    INDEX 01 02:22:67
  TRACK 104 AUDIO
    TITLE "LR_black_phrase_A06_104"
    INDEX 01 02:23:29
  TRACK 105 AUDIO
    TITLE "LR_black_phrase_A06_105"
    INDEX 01 02:24:54
  TRACK 106 AUDIO
    TITLE "LR_black_phrase_A06_106"
    INDEX 01 02:25:58
  TRACK 107 AUDIO
    TITLE "LR_black_phrase_A06_107"
    INDEX 01 02:27:02
  TRACK 108 AUDIO
    TITLE "LR_black_phrase_A06_108"
    INDEX 01 02:27:37
  TRACK 109 AUDIO
    TITLE "LR_black_phrase_A06_109"
    INDEX 01 02:29:38
  TRACK 110 AUDIO
    TITLE "LR_black_phrase_A06_110"
    INDEX 01 02:29:59
  TRACK 111 AUDIO
    TITLE "LR_black_phrase_A06_111"
    INDEX 01 02:31:60
  TRACK 112 AUDIO
    TITLE "LR_black_phrase_A06_112"
    INDEX 01 02:32:58
  TRACK 113 AUDIO
    TITLE "LR_black_phrase_A06_113"
    INDEX 01 02:33:69
  TRACK 114 AUDIO
    TITLE "LR_black_phrase_A06_114"
    INDEX 01 02:34:29
  TRACK 115 AUDIO
    TITLE "LR_black_phrase_A06_115"
    INDEX 01 02:36:38
  TRACK 116 AUDIO
    TITLE "LR_black_phrase_A06_116"
    INDEX 01 02:37:37
  TRACK 117 AUDIO
    TITLE "LR_black_phrase_A06_117"
    INDEX 01 02:39:56
  TRACK 118 AUDIO
    TITLE "LR_black_phrase_A06_118"
    INDEX 01 02:40:14
  TRACK 119 AUDIO
    TITLE "LR_black_phrase_A06_119"
    INDEX 01 02:42:66
  TRACK 120 AUDIO
    TITLE "LR_black_phrase_A06_120"
    INDEX 01 02:43:11
  TRACK 121 AUDIO
    TITLE "LR_black_phrase_A06_121"
    INDEX 01 02:45:64
  TRACK 122 AUDIO
    TITLE "LR_black_phrase_A06_122"
    INDEX 01 02:46:64
  TRACK 123 AUDIO
    TITLE "LR_black_phrase_A06_123"
    INDEX 01 02:48:04
  TRACK 124 AUDIO
    TITLE "LR_black_phrase_A06_124"
    INDEX 01 02:48:43
  TRACK 125 AUDIO
    TITLE "LR_black_phrase_A06_125"
    INDEX 01 02:50:26
  TRACK 126 AUDIO
    TITLE "LR_black_phrase_A06_126"
    INDEX 01 02:51:26
  TRACK 127 AUDIO
    TITLE "LR_black_phrase_A06_127"
    INDEX 01 02:54:44
  TRACK 128 AUDIO
    TITLE "LR_black_phrase_A06_128"
    INDEX 01 02:55:12
  TRACK 129 AUDIO
    TITLE "LR_black_phrase_A06_129"
    INDEX 01 02:57:71
  TRACK 130 AUDIO
    TITLE "LR_black_phrase_A06_130"
    INDEX 01 02:58:26
  TRACK 131 AUDIO
    TITLE "LR_black_phrase_A06_131"
    INDEX 01 03:01:12
  TRACK 132 AUDIO
    TITLE "LR_black_phrase_A06_132"
    INDEX 01 03:02:18
  TRACK 133 AUDIO
    TITLE "LR_black_phrase_A06_133"
    INDEX 01 03:03:37
  TRACK 134 AUDIO
    TITLE "LR_black_phrase_A06_134"
    INDEX 01 03:04:01
  TRACK 135 AUDIO
    TITLE "LR_black_phrase_A06_135"
    INDEX 01 03:06:29
  TRACK 136 AUDIO
    TITLE "LR_black_phrase_A06_136"
    INDEX 01 03:07:29
  TRACK 137 AUDIO
    TITLE "LR_black_phrase_A06_137"
    INDEX 01 03:08:75
  TRACK 138 AUDIO
    TITLE "LR_black_phrase_A06_138"
    INDEX 01 03:09:39
  TRACK 139 AUDIO
    TITLE "LR_black_phrase_A06_139"
    INDEX 01 03:11:66
  TRACK 140 AUDIO
    TITLE "LR_black_phrase_A06_140"
    INDEX 01 03:12:22
  TRACK 141 AUDIO
    TITLE "LR_black_phrase_A06_141"
    INDEX 01 03:14:48
  TRACK 142 AUDIO
    TITLE "LR_black_phrase_A06_142"
    INDEX 01 03:15:54
  TRACK 143 AUDIO
    TITLE "LR_black_phrase_A06_143"
    INDEX 01 03:17:15
  TRACK 144 AUDIO
    TITLE "LR_black_phrase_A06_144"
    INDEX 01 03:17:55
  TRACK 145 AUDIO
    TITLE "LR_black_phrase_A06_145"
    INDEX 01 03:19:14
  TRACK 146 AUDIO
    TITLE "LR_black_phrase_A06_146"
    INDEX 01 03:20:16
  TRACK 147 AUDIO
    TITLE "LR_black_phrase_A06_147"
    INDEX 01 03:23:36
  TRACK 148 AUDIO
    TITLE "LR_black_phrase_A06_148"
    INDEX 01 03:23:75
  TRACK 149 AUDIO
    TITLE "LR_black_phrase_A06_149"
    INDEX 01 03:27:04
  TRACK 150 AUDIO
    TITLE "LR_black_phrase_A06_150"
    INDEX 01 03:27:29
  TRACK 151 AUDIO
    TITLE "LR_black_phrase_A06_151"
    INDEX 01 03:30:34
  TRACK 152 AUDIO
    TITLE "LR_black_phrase_A06_152"
    INDEX 01 03:31:29
  TRACK 153 AUDIO
    TITLE "LR_black_phrase_A06_153"
    INDEX 01 03:32:40
  TRACK 154 AUDIO
    TITLE "LR_black_phrase_A06_154"
    INDEX 01 03:32:74
  TRACK 155 AUDIO
    TITLE "LR_black_phrase_A06_155"
    INDEX 01 03:35:43
  TRACK 156 AUDIO
    TITLE "LR_black_phrase_A06_156"
    INDEX 01 03:36:42
  TRACK 157 AUDIO
    TITLE "LR_black_phrase_A06_157"
    INDEX 01 03:38:31
  TRACK 158 AUDIO
    TITLE "LR_black_phrase_A06_158"
    INDEX 01 03:38:66
  TRACK 159 AUDIO
    TITLE "LR_black_phrase_A06_159"
    INDEX 01 03:40:58
  TRACK 160 AUDIO
    TITLE "LR_black_phrase_A06_160"
    INDEX 01 03:41:04
  TRACK 161 AUDIO
    TITLE "LR_black_phrase_A06_161"
    INDEX 01 03:42:70
  TRACK 162 AUDIO
    TITLE "LR_black_phrase_A06_162"
    INDEX 01 03:43:66
  TRACK 163 AUDIO
    TITLE "LR_black_phrase_A06_163"
    INDEX 01 03:44:65
  TRACK 164 AUDIO
    TITLE "LR_black_phrase_A06_164"
    INDEX 01 03:45:23
  TRACK 165 AUDIO
    TITLE "LR_black_phrase_A06_165"
    INDEX 01 03:47:50
  TRACK 166 AUDIO
    TITLE "LR_black_phrase_A06_166"
    INDEX 01 03:48:47
  TRACK 167 AUDIO
    TITLE "LR_black_phrase_A06_167"
    INDEX 01 03:50:64
  TRACK 168 AUDIO
    TITLE "LR_black_phrase_A06_168"
    INDEX 01 03:51:22
  TRACK 169 AUDIO
    TITLE "LR_black_phrase_A06_169"
    INDEX 01 03:53:15
  TRACK 170 AUDIO
    TITLE "LR_black_phrase_A06_170"
    INDEX 01 03:53:37
  TRACK 171 AUDIO
    TITLE "LR_black_phrase_A06_171"
    INDEX 01 03:55:32
  TRACK 172 AUDIO
    TITLE "LR_black_phrase_A06_172"
    INDEX 01 03:56:27
  TRACK 173 AUDIO
    TITLE "LR_black_phrase_A06_173"
    INDEX 01 03:57:36
  TRACK 174 AUDIO
    TITLE "LR_black_phrase_A06_174"
    INDEX 01 03:57:66
  TRACK 175 AUDIO
    TITLE "LR_black_phrase_A06_175"
    INDEX 01 04:00:35
  TRACK 176 AUDIO
    TITLE "LR_black_phrase_A06_176"
    INDEX 01 04:01:32
  TRACK 177 AUDIO
    TITLE "LR_black_phrase_A06_177"
    INDEX 01 04:04:56
  TRACK 178 AUDIO
    TITLE "LR_black_phrase_A06_178"
    INDEX 01 04:05:14
  TRACK 179 AUDIO
    TITLE "LR_black_phrase_A06_179"
    INDEX 01 04:07:64
  TRACK 180 AUDIO
    TITLE "LR_black_phrase_A06_180"
    INDEX 01 04:08:13
  TRACK 181 AUDIO
    TITLE "LR_black_phrase_A06_181"
    INDEX 01 04:10:63
  TRACK 182 AUDIO
    TITLE "LR_black_phrase_A06_182"
    INDEX 01 04:11:64
  TRACK 183 AUDIO
    TITLE "LR_black_phrase_A06_183"
    INDEX 01 04:12:69
  TRACK 184 AUDIO
    TITLE "LR_black_phrase_A06_184"
    INDEX 01 04:13:35
  TRACK 185 AUDIO
    TITLE "LR_black_phrase_A06_185"
    INDEX 01 04:17:43
  TRACK 186 AUDIO
    TITLE "LR_black_phrase_A06_186"
    INDEX 01 04:18:37
  TRACK 187 AUDIO
    TITLE "LR_black_phrase_A06_187"
    INDEX 01 04:20:18
  TRACK 188 AUDIO
    TITLE "LR_black_phrase_A06_188"
    INDEX 01 04:20:57
  TRACK 189 AUDIO
    TITLE "LR_black_phrase_A06_189"
    INDEX 01 04:22:52
  TRACK 190 AUDIO
    TITLE "LR_black_phrase_A06_190"
    INDEX 01 04:23:06
  TRACK 191 AUDIO
    TITLE "LR_black_phrase_A06_191"
    INDEX 01 04:25:03
  TRACK 192 AUDIO
    TITLE "LR_black_phrase_A06_192"
    INDEX 01 04:26:09
  TRACK 193 AUDIO
    TITLE "LR_black_phrase_A06_193"
    INDEX 01 04:27:32
  TRACK 194 AUDIO
    TITLE "LR_black_phrase_A06_194"
    INDEX 01 04:27:73
  TRACK 195 AUDIO
    TITLE "LR_black_phrase_A06_195"
    INDEX 01 04:29:33
  TRACK 196 AUDIO
    TITLE "LR_black_phrase_A06_196"
    INDEX 01 04:30:32
  TRACK 197 AUDIO
    TITLE "LR_black_phrase_A06_197"
    INDEX 01 04:32:58
  TRACK 198 AUDIO
    TITLE "LR_black_phrase_A06_198"
    INDEX 01 04:33:22
  TRACK 199 AUDIO
    TITLE "LR_black_phrase_A06_199"
    INDEX 01 04:35:55
  TRACK 200 AUDIO
    TITLE "LR_black_phrase_A06_200"
    INDEX 01 04:36:09
  TRACK 201 AUDIO
    TITLE "LR_black_phrase_A06_201"
    INDEX 01 04:38:43
  TRACK 202 AUDIO
    TITLE "LR_black_phrase_A06_202"
    INDEX 01 04:39:47
  TRACK 203 AUDIO
    TITLE "LR_black_phrase_A06_203"
    INDEX 01 04:40:54
  TRACK 204 AUDIO
    TITLE "LR_black_phrase_A06_204"
    INDEX 01 04:41:18
  TRACK 205 AUDIO
    TITLE "LR_black_phrase_A06_205"
    INDEX 01 04:44:05
  TRACK 206 AUDIO
    TITLE "LR_black_phrase_A06_206"
    INDEX 01 04:45:06
  TRACK 207 AUDIO
    TITLE "LR_black_phrase_A06_207"
    INDEX 01 04:47:64
  TRACK 208 AUDIO
    TITLE "LR_black_phrase_A06_208"
    INDEX 01 04:48:30
  TRACK 209 AUDIO
    TITLE "LR_black_phrase_A06_209"
    INDEX 01 04:50:15
  TRACK 210 AUDIO
    TITLE "LR_black_phrase_A06_210"
    INDEX 01 04:50:44
  TRACK 211 AUDIO
    TITLE "LR_black_phrase_A06_211"
    INDEX 01 04:52:32
  TRACK 212 AUDIO
    TITLE "LR_black_phrase_A06_212"
    INDEX 01 04:53:31
  TRACK 213 AUDIO
    TITLE "LR_black_phrase_A06_213"
    INDEX 01 04:54:54
  TRACK 214 AUDIO
    TITLE "LR_black_phrase_A06_214"
    INDEX 01 04:55:16
  TRACK 215 AUDIO
    TITLE "LR_black_phrase_A06_215"
    INDEX 01 04:57:60
  TRACK 216 AUDIO
    TITLE "LR_black_phrase_A06_216"
    INDEX 01 04:58:60
  TRACK 217 AUDIO
    TITLE "LR_black_phrase_A06_217"
    INDEX 01 05:01:17
  TRACK 218 AUDIO
    TITLE "LR_black_phrase_A06_218"
    INDEX 01 05:01:52
  TRACK 219 AUDIO
    TITLE "LR_black_phrase_A06_219"
    INDEX 01 05:03:65
  TRACK 220 AUDIO
    TITLE "LR_black_phrase_A06_220"
    INDEX 01 05:04:09
  TRACK 221 AUDIO
    TITLE "LR_black_phrase_A06_221"
    INDEX 01 05:06:22
  TRACK 222 AUDIO
    TITLE "LR_black_phrase_A06_222"
    INDEX 01 05:07:17
  TRACK 223 AUDIO
    TITLE "LR_black_phrase_A06_223"
    INDEX 01 05:08:29
  TRACK 224 AUDIO
    TITLE "LR_black_phrase_A06_224"
    INDEX 01 05:08:64
  TRACK 225 AUDIO
    TITLE "LR_black_phrase_A06_225"
    INDEX 01 05:10:31
  TRACK 226 AUDIO
    TITLE "LR_black_phrase_A06_226"
    INDEX 01 05:11:39
  TRACK 227 AUDIO
    TITLE "LR_black_phrase_A06_227"
    INDEX 01 05:13:69
  TRACK 228 AUDIO
    TITLE "LR_black_phrase_A06_228"
    INDEX 01 05:14:29
  TRACK 229 AUDIO
    TITLE "LR_black_phrase_A06_229"
    INDEX 01 05:16:48
  TRACK 230 AUDIO
    TITLE "LR_black_phrase_A06_230"
    INDEX 01 05:16:67
  TRACK 231 AUDIO
    TITLE "LR_black_phrase_A06_231"
    INDEX 01 05:19:11
  TRACK 232 AUDIO
    TITLE "LR_black_phrase_A06_232"
    INDEX 01 05:20:04
  TRACK 233 AUDIO
    TITLE "LR_black_phrase_A06_233"
    INDEX 01 05:21:25
  TRACK 234 AUDIO
    TITLE "LR_black_phrase_A06_234"
    INDEX 01 05:21:59
  TRACK 235 AUDIO
    TITLE "LR_black_phrase_A06_235"
    INDEX 01 05:22:70
  TRACK 236 AUDIO
    TITLE "LR_black_phrase_A06_236"
    INDEX 01 05:23:67
  TRACK 237 AUDIO
    TITLE "LR_black_phrase_A06_237"
    INDEX 01 05:25:39
  TRACK 238 AUDIO
    TITLE "LR_black_phrase_A06_238"
    INDEX 01 05:25:72
  TRACK 239 AUDIO
    TITLE "LR_black_phrase_A06_239"
    INDEX 01 05:27:57
  TRACK 240 AUDIO
    TITLE "LR_black_phrase_A06_240"
    INDEX 01 05:28:02
  TRACK 241 AUDIO
    TITLE "LR_black_phrase_A06_241"
    INDEX 01 05:29:60
  TRACK 242 AUDIO
    TITLE "LR_black_phrase_A06_242"
    INDEX 01 05:30:62
  TRACK 243 AUDIO
    TITLE "LR_black_phrase_A06_243"
    INDEX 01 05:31:71
  TRACK 244 AUDIO
    TITLE "LR_black_phrase_A06_244"
    INDEX 01 05:32:35
  TRACK 245 AUDIO
    TITLE "LR_black_phrase_A06_245"
    INDEX 01 05:35:29
  TRACK 246 AUDIO
    TITLE "LR_black_phrase_A06_246"
    INDEX 01 05:36:31
  TRACK 247 AUDIO
    TITLE "LR_black_phrase_A06_247"
    INDEX 01 05:38:43
  TRACK 248 AUDIO
    TITLE "LR_black_phrase_A06_248"
    INDEX 01 05:39:10
  TRACK 249 AUDIO
    TITLE "LR_black_phrase_A06_249"
    INDEX 01 05:41:07
  TRACK 250 AUDIO
    TITLE "LR_black_phrase_A06_250"
    INDEX 01 05:41:38
  TRACK 251 AUDIO
    TITLE "LR_black_phrase_A06_251"
    INDEX 01 05:43:35
  TRACK 252 AUDIO
    TITLE "LR_black_phrase_A06_252"
    INDEX 01 05:44:40
  TRACK 253 AUDIO
    TITLE "LR_black_phrase_A06_253"
    INDEX 01 05:45:47
  TRACK 254 AUDIO
    TITLE "LR_black_phrase_A06_254"
    INDEX 01 05:46:12
  TRACK 255 AUDIO
    TITLE "LR_black_phrase_A06_255"
    INDEX 01 05:48:52
  TRACK 256 AUDIO
    TITLE "LR_black_phrase_A06_256"
    INDEX 01 05:49:49
  TRACK 257 AUDIO
    TITLE "LR_black_phrase_A06_257"
    INDEX 01 05:52:48
  TRACK 258 AUDIO
    TITLE "LR_black_phrase_A06_258"
    INDEX 01 05:53:12
  TRACK 259 AUDIO
    TITLE "LR_black_phrase_A06_259"
    INDEX 01 05:55:65
  TRACK 260 AUDIO
    TITLE "LR_black_phrase_A06_260"
    INDEX 01 05:56:20
  TRACK 261 AUDIO
    TITLE "LR_black_phrase_A06_261"
    INDEX 01 05:58:74
  TRACK 262 AUDIO
    TITLE "LR_black_phrase_A06_262"
    INDEX 01 06:00:02
  TRACK 263 AUDIO
    TITLE "LR_black_phrase_A06_263"
    INDEX 01 06:01:03
  TRACK 264 AUDIO
    TITLE "LR_black_phrase_A06_264"
    INDEX 01 06:01:37
  TRACK 265 AUDIO
    TITLE "LR_black_phrase_A06_265"
    INDEX 01 06:03:30
  TRACK 266 AUDIO
    TITLE "LR_black_phrase_A06_266"
    INDEX 01 06:04:29
  TRACK 267 AUDIO
    TITLE "LR_black_phrase_A06_267"
    INDEX 01 06:06:46
  TRACK 268 AUDIO
    TITLE "LR_black_phrase_A06_268"
    INDEX 01 06:07:10
  TRACK 269 AUDIO
    TITLE "LR_black_phrase_A06_269"
    INDEX 01 06:09:52
  TRACK 270 AUDIO
    TITLE "LR_black_phrase_A06_270"
    INDEX 01 06:10:06
  TRACK 271 AUDIO
    TITLE "LR_black_phrase_A06_271"
    INDEX 01 06:12:50
  TRACK 272 AUDIO
    TITLE "LR_black_phrase_A06_272"
    INDEX 01 06:13:50
  TRACK 273 AUDIO
    TITLE "LR_black_phrase_A06_273"
    INDEX 01 06:14:73
  TRACK 274 AUDIO
    TITLE "LR_black_phrase_A06_274"
    INDEX 01 06:15:35
  TRACK 275 AUDIO
    TITLE "LR_black_phrase_A06_275"
    INDEX 01 06:16:73
  TRACK 276 AUDIO
    TITLE "LR_black_phrase_A06_276"
    INDEX 01 06:17:75
  TRACK 277 AUDIO
    TITLE "LR_black_phrase_A06_277"
    INDEX 01 06:20:14
  TRACK 278 AUDIO
    TITLE "LR_black_phrase_A06_278"
    INDEX 01 06:20:50
  TRACK 279 AUDIO
    TITLE "LR_black_phrase_A06_279"
    INDEX 01 06:23:01
  TRACK 280 AUDIO
    TITLE "LR_black_phrase_A06_280"
    INDEX 01 06:23:25
  TRACK 281 AUDIO
    TITLE "LR_black_phrase_A06_281"
    INDEX 01 06:25:49
  TRACK 282 AUDIO
    TITLE "LR_black_phrase_A06_282"
    INDEX 01 06:26:44
  TRACK 283 AUDIO
    TITLE "LR_black_phrase_A06_283"
    INDEX 01 06:27:67
  TRACK 284 AUDIO
    TITLE "LR_black_phrase_A06_284"
    INDEX 01 06:28:30
  TRACK 285 AUDIO
    TITLE "LR_black_phrase_A06_285"
    INDEX 01 06:30:56
  TRACK 286 AUDIO
    TITLE "LR_black_phrase_A06_286"
    INDEX 01 06:31:53
  TRACK 287 AUDIO
    TITLE "LR_black_phrase_A06_287"
    INDEX 01 06:33:62
  TRACK 288 AUDIO
    TITLE "LR_black_phrase_A06_288"
    INDEX 01 06:34:26
  TRACK 289 AUDIO
    TITLE "LR_black_phrase_A06_289"
    INDEX 01 06:36:45
  TRACK 290 AUDIO
    TITLE "LR_black_phrase_A06_290"
    INDEX 01 06:36:68
  TRACK 291 AUDIO
    TITLE "LR_black_phrase_A06_291"
    INDEX 01 06:39:12
  TRACK 292 AUDIO
    TITLE "LR_black_phrase_A06_292"
    INDEX 01 06:40:07
  TRACK 293 AUDIO
    TITLE "LR_black_phrase_A06_293"
    INDEX 01 06:41:34
  TRACK 294 AUDIO
    TITLE "LR_black_phrase_A06_294"
    INDEX 01 06:41:70
  TRACK 295 AUDIO
    TITLE "LR_black_phrase_A06_295"
    INDEX 01 06:44:48
  TRACK 296 AUDIO
    TITLE "LR_black_phrase_A06_296"
    INDEX 01 06:45:50
  TRACK 297 AUDIO
    TITLE "LR_black_phrase_A06_297"
    INDEX 01 06:48:75
  TRACK 298 AUDIO
    TITLE "LR_black_phrase_A06_298"
    INDEX 01 06:49:40
  TRACK 299 AUDIO
    TITLE "LR_black_phrase_A06_299"
    INDEX 01 06:52:38
  TRACK 300 AUDIO
    TITLE "LR_black_phrase_A06_300"
    INDEX 01 06:52:65
  TRACK 301 AUDIO
    TITLE "LR_black_phrase_A06_301"
    INDEX 01 06:55:62
